<svg width="600" height="600" fill="none" xmlns="http://www.w3.org/2000/svg"><path fill-rule="evenodd" clip-rule="evenodd" d="M299.4 2.2c164.3-.3 298.2 133.5 298.4 298.1.2 164.2-133.5 298.3-297.6 298.4-164.8.2-298.8-133.4-298.9-298.1C1.2 136.1 134.7 2.4 299.4 2.2zm27.8 198.6v201c0 9.9-3 12.9-12.7 13.1-.508 0-1.048.096-1.62.197a16.56 16.56 0 01-1.38.203v48.9H429v-49.1c-.248-.022-.48-.045-.701-.066-.759-.074-1.379-.134-1.999-.134-11.336-.398-12.982-2.081-13-13.506V323h6.6c5.194 0 10.394-.006 15.597-.012h.009c15.631-.019 31.291-.038 46.894.112 4.113 0 5.733-.863 5.704-5.22.001-.155-.001-.315-.004-.48-.118-7.171-.159-14.326-.165-21.478-.004-5.74.014-11.478.032-17.221v-.029c.017-5.186.033-10.375.033-15.572v-5.5h-6.6c-5.25 0-10.5-.006-15.75-.012-15.75-.019-31.5-.038-47.25.112-3.718 0-5.073-.909-5.105-4.458.001-.111.002-.225.005-.342.114-8.554.131-17.109.124-25.663a7630.51 7630.51 0 00-.012-8.287v-.101c-.004-2.695-.009-5.391-.011-8.086l-.001-2.863c0-.903.072-1.806.152-2.796v-.001A73.77 73.77 0 00413.7 203c1.46 0 2.873-.023 4.26-.046h.002c2.698-.044 5.296-.086 7.938.046 10.3.4 16.7 5.3 20 15.1 2.2 6.6 4.3 13.3 6.1 20 .8 2.9 2.3 3.8 5.3 3.8 15.798-.1 31.695-.1 47.493-.1h.007c1.089 0 2.179-.14 3.444-.304l.756-.096V136.7c-65.9.2-131.5.2-197.4.2v49c.237.059.448.119.64.173h.001c.456.128.807.227 1.159.227 12.421.696 13.783 2.082 13.8 14.464v.036zm-117.5-63.7h.1v49.1h-5.9c-7.4.2-10.3 3-10.5 10.3v197c0 .95.063 1.962.138 3.185l.062 1.015c.58 0 1.159.001 1.736.003 2.501.01 4.976.037 7.426.064h.001c7.412.081 14.6.16 21.637-.267 7.1-.3 11.8-4.8 13.2-11.7 2.213-11.161 4.056-22.415 5.884-33.583l.216-1.317c.393-2.492.658-4.983.934-7.587.145-1.368.294-2.767.466-4.213h57.7v.1h.1V464H91.2v-.1h-.1v-49.2c.878 0 1.745.023 2.6.045 1.677.045 3.31.088 4.9-.045 5.2-.4 7.8-3 8.3-8.2.2-2 .2-4 .2-6v-200c0-.43.011-.87.022-1.315.022-.9.045-1.815-.022-2.685-.146-3.753-.863-6.295-2.462-7.925-1.687-1.643-4.318-2.325-8.238-2.375h-5.2v-.1h-.1V137h118.6v.1z" fill="#BD004D"/></svg>