<svg width="1324" height="262" fill="none" xmlns="http://www.w3.org/2000/svg"><path d="M112.945 215.912H16.977V82.862H51.29v107.316h61.655v25.734zm51.112 0h-32.168V115.566h32.168v100.346zm.893-114.643h-33.955V76.875h33.955v24.394zm130.28 114.643h-32.346v-49.771c0-4.051-.209-8.072-.626-12.063-.417-4.051-1.132-7.029-2.144-8.935-1.192-2.204-2.949-3.813-5.272-4.826-2.264-1.012-5.451-1.519-9.561-1.519-2.919 0-5.898.477-8.936 1.43-2.978.953-6.225 2.472-9.74 4.557v71.127h-32.167V115.566h32.167v11.08c5.719-4.468 11.2-7.893 16.442-10.276 5.302-2.383 11.169-3.574 17.603-3.574 10.842 0 19.301 3.157 25.377 9.472 6.136 6.314 9.203 15.756 9.203 28.325v65.319zm127.243-11.527c0 9.412-1.341 17.335-4.021 23.769-2.681 6.433-6.434 11.467-11.259 15.101-4.825 3.693-10.663 6.344-17.514 7.953-6.791 1.668-14.475 2.502-23.054 2.502-6.969 0-13.85-.417-20.641-1.251-6.731-.834-12.569-1.847-17.513-3.038v-25.109h3.931c3.932 1.548 8.727 2.948 14.387 4.199 5.659 1.311 10.722 1.966 15.19 1.966 5.957 0 10.782-.566 14.476-1.698 3.753-1.072 6.612-2.621 8.578-4.646 1.846-1.906 3.187-4.349 4.021-7.327.834-2.979 1.251-6.553 1.251-10.723v-1.876a47.927 47.927 0 01-12.867 7.505c-4.707 1.847-9.949 2.771-15.727 2.771-14.059 0-24.9-4.23-32.525-12.689s-11.438-21.326-11.438-38.602c0-8.28 1.162-15.428 3.485-21.445 2.323-6.016 5.6-11.259 9.829-15.726 3.932-4.17 8.757-7.417 14.476-9.74 5.778-2.323 11.675-3.485 17.692-3.485 5.421 0 10.335.655 14.744 1.966 4.467 1.251 8.518 3.008 12.152 5.272l1.162-4.468h31.185v88.819zm-32.168-20.105v-45.482c-1.847-.774-4.111-1.37-6.791-1.787-2.681-.476-5.094-.715-7.238-.715-8.459 0-14.803 2.443-19.033 7.328-4.229 4.825-6.344 11.586-6.344 20.283 0 9.651 1.787 16.382 5.361 20.195 3.634 3.812 8.995 5.718 16.084 5.718 3.217 0 6.374-.506 9.472-1.519 3.098-1.012 5.927-2.353 8.489-4.021zm163.61-68.714l-38.691 100.346h-36.457l-38.423-100.346h34.044l23.233 68.982 22.964-68.982h33.33zm78.722 74.165v-20.909c-4.349.357-9.055.864-14.118 1.519-5.064.596-8.906 1.31-11.527 2.144-3.217 1.013-5.689 2.502-7.417 4.468-1.668 1.906-2.502 4.438-2.502 7.595 0 2.085.179 3.783.536 5.094.358 1.31 1.251 2.561 2.681 3.753 1.37 1.191 3.008 2.085 4.915 2.68 1.906.536 4.884.804 8.935.804 3.217 0 6.464-.655 9.74-1.965 3.336-1.311 6.255-3.038 8.757-5.183zm0 15.548a340.583 340.583 0 01-6.434 4.736c-2.561 1.846-4.974 3.306-7.238 4.378a43.934 43.934 0 01-9.829 3.128c-3.395.714-7.118 1.072-11.169 1.072-9.531 0-17.514-2.949-23.947-8.846-6.434-5.898-9.651-13.433-9.651-22.607 0-7.327 1.638-13.314 4.915-17.961 3.276-4.646 7.923-8.31 13.939-10.99 5.957-2.681 13.344-4.587 22.16-5.719 8.817-1.132 17.961-1.966 27.432-2.502v-.536c0-5.54-2.263-9.353-6.791-11.438-4.527-2.144-11.199-3.217-20.015-3.217-5.302 0-10.961.954-16.978 2.86-6.016 1.846-10.335 3.276-12.956 4.289h-2.949v-24.215c3.395-.894 8.906-1.936 16.531-3.128a143.245 143.245 0 0123.053-1.876c18.289 0 31.483 2.829 39.585 8.488 8.161 5.6 12.242 14.416 12.242 26.45v68.267h-31.9v-10.633z" fill="#000"/><path d="M791.243 108.596h-61.209v24.752h56.741v25.734h-56.741v56.83H695.9V82.862h95.343v25.734zm54.06 107.316h-32.168V76.875h32.168v139.037zm91.142-26.181v-20.909c-4.348.357-9.054.864-14.118 1.519-5.063.596-8.906 1.31-11.527 2.144-3.217 1.013-5.689 2.502-7.416 4.468-1.668 1.906-2.502 4.438-2.502 7.595 0 2.085.179 3.783.536 5.094.357 1.31 1.251 2.561 2.681 3.753 1.37 1.191 3.008 2.085 4.914 2.68 1.906.536 4.885.804 8.936.804 3.217 0 6.463-.655 9.739-1.965 3.336-1.311 6.255-3.038 8.757-5.183zm0 15.548a340.11 340.11 0 01-6.433 4.736c-2.562 1.846-4.974 3.306-7.238 4.378a43.95 43.95 0 01-9.829 3.128c-3.396.714-7.119 1.072-11.17 1.072-9.531 0-17.513-2.949-23.947-8.846-6.433-5.898-9.65-13.433-9.65-22.607 0-7.327 1.638-13.314 4.914-17.961 3.277-4.646 7.923-8.31 13.94-10.99 5.957-2.681 13.343-4.587 22.16-5.719 8.816-1.132 17.96-1.966 27.432-2.502v-.536c0-5.54-2.264-9.353-6.791-11.438-4.527-2.144-11.199-3.217-20.016-3.217-5.301 0-10.961.954-16.977 2.86-6.017 1.846-10.336 3.276-12.957 4.289h-2.948v-24.215c3.395-.894 8.905-1.936 16.53-3.128a143.258 143.258 0 0123.054-1.876c18.288 0 31.483 2.829 39.585 8.488 8.161 5.6 12.241 14.416 12.241 26.45v68.267h-31.9v-10.633zm162.535-89.713l-38.69 100.346h-36.46l-38.418-100.346h34.048l23.23 68.982 22.96-68.982h33.33zm120.54 50.218c0 16.501-4.82 29.517-14.47 39.048-9.59 9.472-23.09 14.208-40.48 14.208-17.39 0-30.92-4.736-40.57-14.208-9.59-9.531-14.38-22.547-14.38-39.048 0-16.62 4.82-29.666 14.47-39.138 9.71-9.472 23.2-14.207 40.48-14.207 17.51 0 31.04 4.765 40.57 14.296 9.59 9.532 14.38 22.548 14.38 39.049zm-39.58 24.394c2.08-2.562 3.63-5.63 4.65-9.204 1.07-3.634 1.6-8.637 1.6-15.012 0-5.897-.53-10.841-1.6-14.833-1.08-3.991-2.57-7.178-4.47-9.561-1.91-2.442-4.2-4.169-6.88-5.182-2.68-1.013-5.57-1.519-8.67-1.519-3.1 0-5.87.417-8.31 1.251-2.38.834-4.68 2.502-6.88 5.004-1.97 2.323-3.55 5.51-4.74 9.561-1.13 4.05-1.69 9.144-1.69 15.279 0 5.481.5 10.247 1.51 14.297 1.02 3.992 2.51 7.208 4.47 9.651 1.91 2.323 4.17 4.021 6.79 5.093 2.68 1.072 5.72 1.608 9.12 1.608 2.92 0 5.69-.476 8.31-1.429 2.68-1.013 4.94-2.681 6.79-5.004zm135.37-43.963h-2.86c-1.37-.477-3.57-.834-6.61-1.072-3.04-.239-5.57-.358-7.59-.358-4.59 0-8.64.298-12.16.894-3.51.596-7.29 1.608-11.34 3.038v67.195h-32.17V115.566h32.17v14.744c7.08-6.077 13.25-10.098 18.49-12.063 5.24-2.026 10.07-3.038 14.48-3.038 1.13 0 2.41.029 3.84.089 1.43.06 2.68.149 3.75.268v30.649z" fill="#BD004D"/><path d="M400.131 65h-11.87V33.547L368.646 65H357.03V17.742h11.87V46.21l18.25-28.47h12.981V65zm41.133-10.093c0 2.032-.498 3.777-1.492 5.237-.994 1.439-2.338 2.592-4.031 3.46-1.714.867-3.618 1.48-5.713 1.84-2.094.36-4.327.54-6.696.54-3.111 0-5.872-.265-8.284-.794a64.824 64.824 0 01-7.014-1.967v-8.665h1.269c1.672.931 3.544 1.746 5.618 2.444a20.325 20.325 0 006.348 1.016c.804 0 1.756-.053 2.856-.16 1.121-.105 2.01-.285 2.666-.539.889-.338 1.555-.73 2-1.174.465-.444.698-1.153.698-2.126 0-.91-.212-1.62-.635-2.127-.402-.508-.963-.878-1.682-1.11-.614-.212-1.397-.35-2.349-.413a54.065 54.065 0 00-3.554-.096h-5.459v-7.236h4.379c.847 0 1.852-.01 3.016-.032 1.184-.02 2.115-.116 2.793-.285.994-.233 1.703-.603 2.126-1.111.444-.508.667-1.164.667-1.968 0-.656-.223-1.206-.667-1.65-.444-.445-1.026-.794-1.746-1.048-.613-.211-1.333-.37-2.158-.476a20.458 20.458 0 00-2.602-.158c-1.503 0-3.259.264-5.269.793-1.989.529-3.756 1.185-5.3 1.968h-1.238v-8.538c1.312-.402 3.258-.867 5.84-1.396a39.895 39.895 0 017.966-.794c2.37 0 4.528.18 6.475.54 1.946.36 3.671.9 5.173 1.618 1.587.783 2.867 1.799 3.84 3.047.974 1.249 1.46 2.804 1.46 4.666 0 1.904-.655 3.608-1.967 5.11-1.291 1.502-2.846 2.507-4.666 3.015v.285c2.095.55 3.84 1.513 5.237 2.889 1.396 1.354 2.095 3.152 2.095 5.395zM465.67 52.4l8.125-23.042h11.744l-19.805 48.718h-12.378l5.649-13.33-13.869-35.388h11.997L465.67 52.4zM525.592 65h-11.425V52.749c-1.905.402-3.767.74-5.586 1.016-1.82.254-3.798.38-5.935.38-3.873 0-6.919-.962-9.141-2.888-2.201-1.946-3.301-4.655-3.301-8.125V29.358h11.489v8.188c0 1.566.053 2.804.159 3.714.106.888.476 1.745 1.111 2.57.592.741 1.396 1.291 2.412 1.651 1.016.36 2.539.54 4.57.54.529 0 1.228-.022 2.095-.064a27.897 27.897 0 002.127-.222V29.358h11.425V65zm32.405-9.3v-7.426c-1.545.127-3.216.307-5.015.54-1.798.211-3.163.465-4.094.761-1.142.36-2.02.889-2.634 1.587-.593.677-.889 1.576-.889 2.698 0 .74.064 1.343.191 1.809.127.465.444.91.952 1.333.486.423 1.068.74 1.745.952.678.19 1.735.286 3.174.286 1.143 0 2.296-.233 3.46-.699 1.185-.465 2.221-1.079 3.11-1.84zm0 5.523a118.46 118.46 0 01-2.285 1.682c-.91.656-1.767 1.175-2.571 1.555a15.592 15.592 0 01-3.491 1.111c-1.206.254-2.529.381-3.967.381-3.386 0-6.221-1.047-8.506-3.142-2.285-2.095-3.428-4.771-3.428-8.03 0-2.602.582-4.729 1.746-6.38 1.163-1.65 2.814-2.95 4.951-3.903 2.116-.952 4.739-1.63 7.871-2.031 3.131-.402 6.379-.698 9.744-.889v-.19c0-1.968-.804-3.322-2.413-4.063-1.608-.761-3.977-1.142-7.109-1.142-1.883 0-3.893.338-6.03 1.015-2.137.656-3.671 1.164-4.602 1.524h-1.048V30.12c1.206-.318 3.164-.688 5.872-1.111a50.882 50.882 0 018.188-.667c6.496 0 11.183 1.005 14.06 3.015 2.899 1.99 4.349 5.12 4.349 9.395V65h-11.331v-3.777zm56.939-11.933h-26.153c.169 2.793 1.227 4.93 3.174 6.41 1.968 1.482 4.856 2.222 8.665 2.222 2.412 0 4.75-.433 7.014-1.3 2.264-.868 4.052-1.8 5.364-2.794h1.269V63c-2.581 1.037-5.015 1.788-7.3 2.254-2.285.465-4.813.698-7.585.698-7.152 0-12.632-1.608-16.441-4.824-3.808-3.216-5.713-7.797-5.713-13.743 0-5.882 1.799-10.537 5.396-13.965 3.618-3.449 8.569-5.173 14.853-5.173 5.798 0 10.157 1.47 13.077 4.412 2.92 2.92 4.38 7.13 4.38 12.632v3.999zm-11.363-6.697c-.063-2.391-.656-4.19-1.777-5.396-1.122-1.206-2.867-1.809-5.237-1.809-2.2 0-4.01.572-5.427 1.714-1.418 1.143-2.211 2.973-2.381 5.49h14.822zM666.161 65h-11.14V42.878l-8.093 14.6h-5.015l-8.093-14.6V65h-10.823V29.358h12.41l9.172 16.186 9.172-16.186h12.41V65zm66.524 0h-11.394V52.622h-5.11L707.643 65h-12.79l10.219-13.965c-2.391-1.079-4.21-2.433-5.459-4.062-1.227-1.65-1.841-3.925-1.841-6.824 0-1.968.381-3.618 1.143-4.951.783-1.333 1.83-2.476 3.142-3.428 1.164-.804 2.529-1.407 4.094-1.81 1.587-.401 3.354-.602 5.301-.602h21.233V65zm-11.394-19.36v-8.887h-6.761c-1.565 0-2.793.36-3.681 1.079-.868.698-1.302 1.724-1.302 3.079 0 1.671.434 2.877 1.302 3.618.867.74 2.158 1.11 3.872 1.11h6.57zm52.082 9.267c0 2.032-.497 3.777-1.492 5.237-.994 1.439-2.338 2.592-4.03 3.46-1.714.867-3.619 1.48-5.713 1.84-2.095.36-4.327.54-6.697.54-3.11 0-5.872-.265-8.284-.794a64.824 64.824 0 01-7.014-1.967v-8.665h1.27c1.671.931 3.544 1.746 5.617 2.444a20.334 20.334 0 006.348 1.016c.804 0 1.756-.053 2.856-.16 1.122-.105 2.01-.285 2.666-.539.889-.338 1.556-.73 2-1.174.465-.444.698-1.153.698-2.126 0-.91-.211-1.62-.635-2.127-.402-.508-.962-.878-1.682-1.11-.613-.212-1.396-.35-2.348-.413a54.077 54.077 0 00-3.555-.096h-5.459v-7.236h4.38c.846 0 1.851-.01 3.015-.032 1.185-.02 2.116-.116 2.793-.285.994-.233 1.703-.603 2.126-1.111.445-.508.667-1.164.667-1.968 0-.656-.222-1.206-.667-1.65-.444-.445-1.026-.794-1.745-1.048-.614-.211-1.333-.37-2.158-.476a20.486 20.486 0 00-2.603-.158c-1.502 0-3.258.264-5.269.793-1.988.529-3.755 1.185-5.3 1.968h-1.238v-8.538c1.312-.402 3.259-.867 5.84-1.396a39.905 39.905 0 017.967-.794c2.369 0 4.528.18 6.474.54 1.947.36 3.671.9 5.174 1.618 1.586.783 2.867 1.799 3.84 3.047.973 1.249 1.46 2.804 1.46 4.666 0 1.904-.656 3.608-1.968 5.11-1.291 1.502-2.846 2.507-4.665 3.015v.285c2.094.55 3.84 1.513 5.236 2.889 1.397 1.354 2.095 3.152 2.095 5.395zm31.231-1.84c0-1.524-.455-2.667-1.365-3.428-.91-.762-2.222-1.143-3.936-1.143h-6.22v9.3h6.22c1.143 0 2.074-.16 2.793-.477.72-.338 1.249-.75 1.587-1.238.36-.465.603-.952.73-1.46a6.386 6.386 0 00.191-1.555zm11.743-.096c0 1.82-.36 3.502-1.079 5.047-.72 1.544-1.661 2.803-2.825 3.776-1.439 1.164-2.931 1.99-4.475 2.476-1.524.487-3.587.73-6.189.73h-20.091V29.358h11.395V41.26h8.728c2.56 0 4.623.19 6.189.571 1.586.36 3.089 1.069 4.506 2.127 1.27.952 2.222 2.232 2.857 3.84.656 1.587.984 3.311.984 5.173zM831.771 65h-11.425V29.358h11.425V65zm48.687 0h-13.203l-9.553-14.123h-3.65V65h-11.426V29.358h11.426v14.314c2.116-.021 3.576-.243 4.38-.667.804-.444 1.735-1.597 2.793-3.46.317-.55.698-1.258 1.142-2.126.445-.867.794-1.534 1.048-2 1.163-2.073 2.517-3.607 4.062-4.601 1.566-1.016 3.735-1.524 6.506-1.524.804 0 1.651.011 2.539.032.91.021 1.524.032 1.841.032v9.521h-3.11c-1.27 0-2.285.318-3.047.953-.741.634-1.386 1.576-1.936 2.824-.465 1.037-.889 1.862-1.27 2.476a5.54 5.54 0 01-1.459 1.523L880.458 65zm41.799 0h-11.076V43.196L895.692 65h-9.458V29.358h11.077v19.519l14.346-19.52h10.6V65zm51.607.952c-3.111 0-5.956-.37-8.538-1.11-2.56-.741-4.792-1.884-6.697-3.428-1.883-1.545-3.343-3.492-4.379-5.84-1.037-2.349-1.556-5.1-1.556-8.252 0-3.322.55-6.19 1.651-8.601 1.121-2.412 2.676-4.412 4.665-5.999 1.926-1.502 4.147-2.602 6.665-3.3a29.2 29.2 0 017.84-1.048c2.433 0 4.676.265 6.728.794a31.774 31.774 0 015.745 2.063v9.743h-1.619c-.444-.38-.984-.825-1.619-1.333-.613-.508-1.375-1.005-2.285-1.492a14.355 14.355 0 00-2.856-1.142c-1.037-.317-2.243-.476-3.618-.476-3.047 0-5.396.973-7.046 2.92-1.629 1.925-2.444 4.549-2.444 7.87 0 3.428.836 6.031 2.507 7.808 1.693 1.778 4.084 2.666 7.173 2.666 1.439 0 2.73-.158 3.872-.476 1.164-.338 2.127-.73 2.888-1.174.72-.423 1.355-.867 1.905-1.333.55-.465 1.058-.92 1.523-1.365h1.619v9.744a30.343 30.343 0 01-5.65 2c-1.946.507-4.104.761-6.474.761zm56.776-18.757c0 5.86-1.71 10.484-5.14 13.87-3.4 3.364-8.2 5.046-14.38 5.046-6.17 0-10.98-1.682-14.405-5.047-3.406-3.385-5.11-8.008-5.11-13.87 0-5.903 1.714-10.536 5.142-13.9 3.453-3.365 8.243-5.047 14.373-5.047 6.23 0 11.03 1.693 14.41 5.078 3.41 3.386 5.11 8.009 5.11 13.87zm-14.06 8.664c.74-.91 1.29-2 1.65-3.269.38-1.29.58-3.068.58-5.332 0-2.094-.2-3.85-.58-5.268-.38-1.418-.91-2.55-1.58-3.396-.68-.868-1.49-1.481-2.45-1.841a8.64 8.64 0 00-3.08-.54c-1.1 0-2.08.148-2.95.445-.84.296-1.66.888-2.44 1.777-.7.825-1.26 1.957-1.68 3.396-.41 1.439-.61 3.248-.61 5.427 0 1.947.18 3.64.54 5.078.36 1.418.89 2.56 1.59 3.428.68.825 1.48 1.428 2.41 1.81.95.38 2.03.57 3.24.57 1.04 0 2.02-.169 2.95-.507.95-.36 1.76-.952 2.41-1.778zm80.21-1.618c0 1.714-.35 3.237-1.05 4.57a9.824 9.824 0 01-2.73 3.333c-1.44 1.121-2.96 1.883-4.57 2.285-1.59.38-3.48.571-5.68.571h-21.71V29.358h20.79c2.6 0 4.51.084 5.74.254 1.23.17 2.44.582 3.62 1.238 1.25.677 2.18 1.576 2.79 2.697.64 1.122.96 2.455.96 4 0 1.756-.51 3.3-1.53 4.633a10.048 10.048 0 01-3.62 3.015v.35c1.97.486 3.62 1.47 4.95 2.951 1.36 1.46 2.04 3.375 2.04 5.745zm-13.37-14.156c0-1.311-.4-2.242-1.2-2.793-.78-.55-2.05-.825-3.81-.825h-6.03v7.11h6.22c1.54 0 2.73-.307 3.55-.92.85-.635 1.27-1.492 1.27-2.572zm1.59 13.807c0-1.545-.44-2.624-1.33-3.238-.87-.635-2.16-.952-3.87-.952h-7.43v8.157h7.62c1.56 0 2.79-.35 3.68-1.047.89-.72 1.33-1.693 1.33-2.92zM1142.93 65h-13.2l-9.55-14.123h-3.65V65h-11.43V29.358h11.43v14.314c2.11-.021 3.57-.243 4.38-.667.8-.444 1.73-1.597 2.79-3.46.32-.55.7-1.258 1.14-2.126.45-.867.8-1.534 1.05-2 1.16-2.073 2.52-3.607 4.06-4.601 1.57-1.016 3.74-1.524 6.51-1.524.8 0 1.65.011 2.54.032.91.021 1.52.032 1.84.032v9.521h-3.11c-1.27 0-2.29.318-3.05.953-.74.634-1.38 1.576-1.93 2.824-.47 1.037-.89 1.862-1.27 2.476-.38.592-.87 1.1-1.46 1.523L1142.93 65zm21.87-12.6l8.13-23.042h11.74l-19.81 48.718h-12.37l5.65-13.33-13.87-35.388h11.99l8.54 23.042zm44.82 13.552c-3.11 0-5.96-.37-8.54-1.11-2.56-.741-4.79-1.884-6.7-3.428-1.88-1.545-3.34-3.492-4.38-5.84-1.04-2.349-1.55-5.1-1.55-8.252 0-3.322.55-6.19 1.65-8.601 1.12-2.412 2.67-4.412 4.66-5.999 1.93-1.502 4.15-2.602 6.67-3.3a29.205 29.205 0 017.84-1.048c2.43 0 4.67.265 6.73.794a31.86 31.86 0 015.74 2.063v9.743h-1.62c-.44-.38-.98-.825-1.62-1.333-.61-.508-1.37-1.005-2.28-1.492-.87-.465-1.82-.846-2.86-1.142-1.04-.317-2.24-.476-3.62-.476-3.04 0-5.39.973-7.04 2.92-1.63 1.925-2.45 4.549-2.45 7.87 0 3.428.84 6.031 2.51 7.808 1.69 1.778 4.08 2.666 7.17 2.666 1.44 0 2.73-.158 3.88-.476 1.16-.338 2.12-.73 2.88-1.174.72-.423 1.36-.867 1.91-1.333.55-.465 1.06-.92 1.52-1.365h1.62v9.744c-1.8.846-3.68 1.513-5.65 2-1.95.507-4.1.761-6.47.761zm56.78-18.757c0 5.86-1.72 10.484-5.15 13.87-3.4 3.364-8.2 5.046-14.37 5.046-6.18 0-10.98-1.682-14.41-5.047-3.41-3.385-5.11-8.008-5.11-13.87 0-5.903 1.71-10.536 5.14-13.9 3.45-3.365 8.24-5.047 14.38-5.047 6.22 0 11.02 1.693 14.41 5.078 3.4 3.386 5.11 8.009 5.11 13.87zm-14.06 8.664c.74-.91 1.29-2 1.65-3.269.38-1.29.57-3.068.57-5.332 0-2.094-.19-3.85-.57-5.268-.39-1.418-.91-2.55-1.59-3.396-.68-.868-1.49-1.481-2.44-1.841a8.68 8.68 0 00-3.08-.54c-1.1 0-2.09.148-2.96.445-.84.296-1.66.888-2.44 1.777-.7.825-1.26 1.957-1.68 3.396-.4 1.439-.6 3.248-.6 5.427 0 1.947.18 3.64.54 5.078.36 1.418.88 2.56 1.58 3.428.68.825 1.48 1.428 2.41 1.81.96.38 2.04.57 3.24.57 1.04 0 2.02-.169 2.95-.507.96-.36 1.76-.952 2.42-1.778zM1317.75 65h-11.14V42.878l-8.1 14.6h-5.01l-8.09-14.6V65h-10.83V29.358h12.41l9.18 16.186 9.17-16.186h12.41V65z" fill="#000"/></svg>