<svg width="1324" height="262" viewBox="0 0 1324 262" fill="none" xmlns="http://www.w3.org/2000/svg">
<path d="M112.945 215.912H16.9775V82.8619H51.29V190.178H112.945V215.912ZM164.057 215.912H131.889V115.566H164.057V215.912ZM164.95 101.269H130.995V76.8751H164.95V101.269ZM295.23 215.912H262.884V166.141C262.884 162.09 262.675 158.069 262.258 154.078C261.841 150.027 261.126 147.049 260.114 145.143C258.922 142.939 257.165 141.33 254.842 140.317C252.578 139.305 249.391 138.798 245.281 138.798C242.362 138.798 239.383 139.275 236.345 140.228C233.367 141.181 230.12 142.7 226.605 144.785V215.912H194.438V115.566H226.605V126.646C232.324 122.178 237.805 118.753 243.047 116.37C248.349 113.987 254.216 112.796 260.65 112.796C271.492 112.796 279.951 115.953 286.027 122.268C292.163 128.582 295.23 138.024 295.23 150.593V215.912ZM422.473 204.385C422.473 213.797 421.132 221.72 418.452 228.154C415.771 234.587 412.018 239.621 407.193 243.255C402.368 246.948 396.53 249.599 389.679 251.208C382.888 252.876 375.204 253.71 366.625 253.71C359.656 253.71 352.775 253.293 345.984 252.459C339.253 251.625 333.415 250.612 328.471 249.421V224.312H332.402C336.334 225.86 341.129 227.26 346.789 228.511C352.448 229.822 357.511 230.477 361.979 230.477C367.936 230.477 372.761 229.911 376.455 228.779C380.208 227.707 383.067 226.158 385.033 224.133C386.879 222.227 388.22 219.784 389.054 216.806C389.888 213.827 390.305 210.253 390.305 206.083V204.207C386.433 207.364 382.144 209.866 377.438 211.712C372.731 213.559 367.489 214.483 361.711 214.483C347.652 214.483 336.811 210.253 329.186 201.794C321.561 193.335 317.748 180.468 317.748 163.192C317.748 154.912 318.91 147.764 321.233 141.747C323.556 135.731 326.833 130.488 331.062 126.021C334.994 121.851 339.819 118.604 345.538 116.281C351.316 113.958 357.213 112.796 363.23 112.796C368.651 112.796 373.565 113.451 377.974 114.762C382.441 116.013 386.492 117.77 390.126 120.034L391.288 115.566H422.473V204.385ZM390.305 184.28V138.798C388.458 138.024 386.194 137.428 383.514 137.011C380.833 136.535 378.42 136.296 376.276 136.296C367.817 136.296 361.473 138.739 357.243 143.624C353.014 148.449 350.899 155.21 350.899 163.907C350.899 173.558 352.686 180.289 356.26 184.102C359.894 187.914 365.255 189.82 372.344 189.82C375.561 189.82 378.718 189.314 381.816 188.301C384.914 187.289 387.743 185.948 390.305 184.28ZM553.915 115.566L515.224 215.912H478.767L440.344 115.566H474.388L497.621 184.548L520.585 115.566H553.915ZM632.637 189.731V168.822C628.288 169.179 623.582 169.686 618.519 170.341C613.455 170.937 609.613 171.651 606.992 172.485C603.775 173.498 601.303 174.987 599.575 176.953C597.907 178.859 597.073 181.391 597.073 184.548C597.073 186.633 597.252 188.331 597.609 189.642C597.967 190.952 598.86 192.203 600.29 193.395C601.66 194.586 603.298 195.48 605.205 196.075C607.111 196.611 610.089 196.879 614.14 196.879C617.357 196.879 620.604 196.224 623.88 194.914C627.216 193.603 630.135 191.876 632.637 189.731ZM632.637 205.279C630.909 206.589 628.765 208.168 626.203 210.015C623.642 211.861 621.229 213.321 618.965 214.393C615.808 215.823 612.532 216.865 609.136 217.521C605.741 218.235 602.018 218.593 597.967 218.593C588.436 218.593 580.453 215.644 574.02 209.747C567.586 203.849 564.369 196.314 564.369 187.14C564.369 179.813 566.007 173.826 569.284 169.179C572.56 164.533 577.207 160.869 583.223 158.189C589.18 155.508 596.567 153.602 605.383 152.47C614.2 151.338 623.344 150.504 632.815 149.968V149.432C632.815 143.892 630.552 140.079 626.024 137.994C621.497 135.85 614.825 134.777 606.009 134.777C600.707 134.777 595.048 135.731 589.031 137.637C583.015 139.483 578.696 140.913 576.075 141.926H573.126V117.711C576.521 116.817 582.032 115.775 589.657 114.583C597.341 113.332 605.026 112.707 612.71 112.707C630.999 112.707 644.193 115.536 652.295 121.195C660.456 126.795 664.537 135.611 664.537 147.645V215.912H632.637V205.279Z" fill="black"/>
<path d="M791.243 108.596H730.034V133.348H786.775V159.082H730.034V215.912H695.9V82.8619H791.243V108.596ZM845.303 215.912H813.135V76.8751H845.303V215.912ZM936.445 189.731V168.822C932.097 169.179 927.391 169.686 922.327 170.341C917.264 170.937 913.421 171.651 910.8 172.485C907.583 173.498 905.111 174.987 903.384 176.953C901.716 178.859 900.882 181.391 900.882 184.548C900.882 186.633 901.061 188.331 901.418 189.642C901.775 190.952 902.669 192.203 904.099 193.395C905.469 194.586 907.107 195.48 909.013 196.075C910.919 196.611 913.898 196.879 917.949 196.879C921.166 196.879 924.412 196.224 927.688 194.914C931.024 193.603 933.943 191.876 936.445 189.731ZM936.445 205.279C934.718 206.589 932.573 208.168 930.012 210.015C927.45 211.861 925.038 213.321 922.774 214.393C919.617 215.823 916.34 216.865 912.945 217.521C909.549 218.235 905.826 218.593 901.775 218.593C892.244 218.593 884.262 215.644 877.828 209.747C871.395 203.849 868.178 196.314 868.178 187.14C868.178 179.813 869.816 173.826 873.092 169.179C876.369 164.533 881.015 160.869 887.032 158.189C892.989 155.508 900.375 153.602 909.192 152.47C918.008 151.338 927.152 150.504 936.624 149.968V149.432C936.624 143.892 934.36 140.079 929.833 137.994C925.306 135.85 918.634 134.777 909.817 134.777C904.516 134.777 898.856 135.731 892.84 137.637C886.823 139.483 882.504 140.913 879.883 141.926H876.935V117.711C880.33 116.817 885.84 115.775 893.465 114.583C901.15 113.332 908.834 112.707 916.519 112.707C934.807 112.707 948.002 115.536 956.104 121.195C964.265 126.795 968.345 135.611 968.345 147.645V215.912H936.445V205.279ZM1098.98 115.566L1060.29 215.912H1023.83L985.412 115.566H1019.46L1042.69 184.548L1065.65 115.566H1098.98ZM1219.52 165.784C1219.52 182.285 1214.7 195.301 1205.05 204.832C1195.46 214.304 1181.96 219.04 1164.57 219.04C1147.18 219.04 1133.65 214.304 1124 204.832C1114.41 195.301 1109.62 182.285 1109.62 165.784C1109.62 149.164 1114.44 136.118 1124.09 126.646C1133.8 117.174 1147.29 112.439 1164.57 112.439C1182.08 112.439 1195.61 117.204 1205.14 126.735C1214.73 136.267 1219.52 149.283 1219.52 165.784ZM1179.94 190.178C1182.02 187.616 1183.57 184.548 1184.59 180.974C1185.66 177.34 1186.19 172.337 1186.19 165.962C1186.19 160.065 1185.66 155.121 1184.59 151.129C1183.51 147.138 1182.02 143.951 1180.12 141.568C1178.21 139.126 1175.92 137.399 1173.24 136.386C1170.56 135.373 1167.67 134.867 1164.57 134.867C1161.47 134.867 1158.7 135.284 1156.26 136.118C1153.88 136.952 1151.58 138.62 1149.38 141.122C1147.41 143.445 1145.83 146.632 1144.64 150.683C1143.51 154.733 1142.95 159.827 1142.95 165.962C1142.95 171.443 1143.45 176.209 1144.46 180.259C1145.48 184.251 1146.97 187.467 1148.93 189.91C1150.84 192.233 1153.1 193.931 1155.72 195.003C1158.4 196.075 1161.44 196.611 1164.84 196.611C1167.76 196.611 1170.53 196.135 1173.15 195.182C1175.83 194.169 1178.09 192.501 1179.94 190.178ZM1315.31 146.215H1312.45C1311.08 145.738 1308.88 145.381 1305.84 145.143C1302.8 144.904 1300.27 144.785 1298.25 144.785C1293.66 144.785 1289.61 145.083 1286.09 145.679C1282.58 146.275 1278.8 147.287 1274.75 148.717V215.912H1242.58V115.566H1274.75V130.31C1281.83 124.233 1288 120.212 1293.24 118.247C1298.48 116.221 1303.31 115.209 1307.72 115.209C1308.85 115.209 1310.13 115.238 1311.56 115.298C1312.99 115.358 1314.24 115.447 1315.31 115.566V146.215Z" fill="#BD004D"/>
<path d="M400.131 65H388.261V33.5474L368.646 65H357.03V17.7417H368.9V46.2109L387.15 17.7417H400.131V65ZM441.264 54.9072C441.264 56.9385 440.766 58.6841 439.772 60.144C438.778 61.5828 437.434 62.736 435.741 63.6035C434.027 64.471 432.123 65.0846 430.028 65.4443C427.934 65.804 425.701 65.9839 423.332 65.9839C420.221 65.9839 417.46 65.7194 415.048 65.1904C412.657 64.6615 410.319 64.0055 408.034 63.2227V54.5581H409.303C410.975 55.4891 412.847 56.3037 414.921 57.002C416.994 57.679 419.11 58.0176 421.269 58.0176C422.073 58.0176 423.025 57.9647 424.125 57.8589C425.246 57.7531 426.135 57.5732 426.791 57.3193C427.68 56.9808 428.346 56.5894 428.791 56.145C429.256 55.7007 429.489 54.9919 429.489 54.0186C429.489 53.1087 429.277 52.3999 428.854 51.8921C428.452 51.3843 427.891 51.014 427.172 50.7812C426.558 50.5697 425.775 50.4321 424.823 50.3687C423.892 50.3052 422.707 50.2734 421.269 50.2734H415.81V43.0371H420.189C421.036 43.0371 422.041 43.0265 423.205 43.0054C424.389 42.9842 425.32 42.889 425.998 42.7197C426.992 42.487 427.701 42.1167 428.124 41.6089C428.568 41.1011 428.791 40.4451 428.791 39.6411C428.791 38.9852 428.568 38.4351 428.124 37.9907C427.68 37.5464 427.098 37.1973 426.378 36.9434C425.765 36.7318 425.045 36.5731 424.22 36.4673C423.395 36.3615 422.528 36.3086 421.618 36.3086C420.115 36.3086 418.359 36.5731 416.349 37.1021C414.36 37.631 412.593 38.2869 411.049 39.0698H409.811V30.5322C411.123 30.1302 413.069 29.6647 415.651 29.1357C418.253 28.6068 420.909 28.3423 423.617 28.3423C425.987 28.3423 428.145 28.5221 430.092 28.8818C432.038 29.2415 433.763 29.7811 435.265 30.5005C436.852 31.2834 438.132 32.299 439.105 33.5474C440.079 34.7957 440.565 36.3509 440.565 38.2129C440.565 40.1172 439.91 41.8205 438.598 43.3228C437.307 44.825 435.752 45.8301 433.932 46.3379V46.6235C436.027 47.1737 437.772 48.1364 439.169 49.5117C440.565 50.8659 441.264 52.6644 441.264 54.9072ZM465.67 52.3999L473.795 29.3579H485.539L465.734 78.0762H453.356L459.005 64.7461L445.136 29.3579H457.133L465.67 52.3999ZM525.592 65H514.167V52.749C512.262 53.151 510.4 53.4896 508.581 53.7646C506.761 54.0186 504.783 54.1455 502.646 54.1455C498.773 54.1455 495.727 53.1828 493.505 51.2573C491.304 49.3107 490.204 46.6024 490.204 43.1323V29.3579H501.693V37.5464C501.693 39.1121 501.746 40.3499 501.852 41.2598C501.958 42.1484 502.328 43.0054 502.963 43.8306C503.555 44.5711 504.359 45.1213 505.375 45.481C506.391 45.8407 507.914 46.0205 509.945 46.0205C510.474 46.0205 511.173 45.9993 512.04 45.957C512.908 45.8936 513.616 45.8195 514.167 45.7349V29.3579H525.592V65ZM557.997 55.7007V48.2739C556.452 48.4009 554.781 48.5807 552.982 48.8135C551.184 49.0251 549.819 49.279 548.888 49.5752C547.746 49.9349 546.868 50.4639 546.254 51.1621C545.661 51.8392 545.365 52.7384 545.365 53.8599C545.365 54.6004 545.429 55.2035 545.556 55.6689C545.683 56.1344 546 56.5788 546.508 57.002C546.994 57.4251 547.576 57.7425 548.253 57.9541C548.931 58.1445 549.988 58.2397 551.427 58.2397C552.57 58.2397 553.723 58.007 554.887 57.5415C556.072 57.076 557.108 56.4624 557.997 55.7007ZM557.997 61.2231C557.383 61.6886 556.622 62.2493 555.712 62.9053C554.802 63.5612 553.945 64.0796 553.141 64.4604C552.02 64.9683 550.856 65.3385 549.65 65.5713C548.444 65.8252 547.121 65.9521 545.683 65.9521C542.297 65.9521 539.462 64.9048 537.177 62.8101C534.892 60.7153 533.749 58.0387 533.749 54.7803C533.749 52.1777 534.331 50.0513 535.495 48.4009C536.658 46.7505 538.309 45.4492 540.446 44.4971C542.562 43.5449 545.185 42.8678 548.317 42.4658C551.448 42.0638 554.696 41.7676 558.061 41.5771V41.3867C558.061 39.4189 557.257 38.0648 555.648 37.3242C554.04 36.5625 551.671 36.1816 548.539 36.1816C546.656 36.1816 544.646 36.5202 542.509 37.1973C540.372 37.8532 538.838 38.361 537.907 38.7207H536.859V30.1196C538.065 29.8022 540.023 29.432 542.731 29.0088C545.46 28.5645 548.19 28.3423 550.919 28.3423C557.415 28.3423 562.102 29.3473 564.979 31.3574C567.878 33.3464 569.328 36.4779 569.328 40.752V65H557.997V61.2231ZM614.936 49.2896H588.783C588.952 52.0825 590.01 54.2196 591.957 55.7007C593.925 57.1818 596.813 57.9224 600.622 57.9224C603.034 57.9224 605.372 57.4886 607.636 56.6211C609.9 55.7536 611.688 54.8226 613 53.8281H614.269V63.0005C611.688 64.0373 609.254 64.7884 606.969 65.2539C604.684 65.7194 602.156 65.9521 599.384 65.9521C592.232 65.9521 586.752 64.3441 582.943 61.1279C579.135 57.9118 577.23 53.3309 577.23 47.3853C577.23 41.5031 579.029 36.8481 582.626 33.4204C586.244 29.9715 591.195 28.2471 597.479 28.2471C603.277 28.2471 607.636 29.7176 610.556 32.6587C613.476 35.5786 614.936 39.7892 614.936 45.2905V49.2896ZM603.573 42.5928C603.51 40.2018 602.917 38.4033 601.796 37.1973C600.674 35.9912 598.929 35.3882 596.559 35.3882C594.359 35.3882 592.549 35.9595 591.132 37.1021C589.714 38.2446 588.921 40.0749 588.751 42.5928H603.573ZM666.161 65H655.021V42.8784L646.928 57.478H641.913L633.82 42.8784V65H622.997V29.3579H635.407L644.579 45.5444L653.751 29.3579H666.161V65ZM732.685 65H721.291V52.6221H716.181L707.643 65H694.853L705.072 51.0352C702.681 49.9561 700.862 48.6019 699.613 46.9727C698.386 45.3223 697.772 43.0477 697.772 40.1489C697.772 38.1812 698.153 36.5308 698.915 35.1978C699.698 33.8647 700.745 32.7222 702.057 31.77C703.221 30.966 704.586 30.363 706.151 29.9609C707.738 29.5589 709.505 29.3579 711.452 29.3579H732.685V65ZM721.291 45.6396V36.7529H714.53C712.965 36.7529 711.737 37.1126 710.849 37.832C709.981 38.5303 709.547 39.5565 709.547 40.9106C709.547 42.5822 709.981 43.7882 710.849 44.5288C711.716 45.2694 713.007 45.6396 714.721 45.6396H721.291ZM773.373 54.9072C773.373 56.9385 772.876 58.6841 771.881 60.144C770.887 61.5828 769.543 62.736 767.851 63.6035C766.137 64.471 764.232 65.0846 762.138 65.4443C760.043 65.804 757.811 65.9839 755.441 65.9839C752.331 65.9839 749.569 65.7194 747.157 65.1904C744.766 64.6615 742.428 64.0055 740.143 63.2227V54.5581H741.413C743.084 55.4891 744.957 56.3037 747.03 57.002C749.104 57.679 751.22 58.0176 753.378 58.0176C754.182 58.0176 755.134 57.9647 756.234 57.8589C757.356 57.7531 758.244 57.5732 758.9 57.3193C759.789 56.9808 760.456 56.5894 760.9 56.145C761.365 55.7007 761.598 54.9919 761.598 54.0186C761.598 53.1087 761.387 52.3999 760.963 51.8921C760.561 51.3843 760.001 51.014 759.281 50.7812C758.668 50.5697 757.885 50.4321 756.933 50.3687C756.002 50.3052 754.817 50.2734 753.378 50.2734H747.919V43.0371H752.299C753.145 43.0371 754.15 43.0265 755.314 43.0054C756.499 42.9842 757.43 42.889 758.107 42.7197C759.101 42.487 759.81 42.1167 760.233 41.6089C760.678 41.1011 760.9 40.4451 760.9 39.6411C760.9 38.9852 760.678 38.4351 760.233 37.9907C759.789 37.5464 759.207 37.1973 758.488 36.9434C757.874 36.7318 757.155 36.5731 756.33 36.4673C755.504 36.3615 754.637 36.3086 753.727 36.3086C752.225 36.3086 750.469 36.5731 748.458 37.1021C746.47 37.631 744.703 38.2869 743.158 39.0698H741.92V30.5322C743.232 30.1302 745.179 29.6647 747.76 29.1357C750.363 28.6068 753.018 28.3423 755.727 28.3423C758.096 28.3423 760.255 28.5221 762.201 28.8818C764.148 29.2415 765.872 29.7811 767.375 30.5005C768.961 31.2834 770.242 32.299 771.215 33.5474C772.188 34.7957 772.675 36.3509 772.675 38.2129C772.675 40.1172 772.019 41.8205 770.707 43.3228C769.416 44.825 767.861 45.8301 766.042 46.3379V46.6235C768.136 47.1737 769.882 48.1364 771.278 49.5117C772.675 50.8659 773.373 52.6644 773.373 54.9072ZM804.604 53.0664C804.604 51.543 804.149 50.4004 803.239 49.6387C802.329 48.877 801.017 48.4961 799.303 48.4961H793.083V57.7954H799.303C800.446 57.7954 801.377 57.6367 802.096 57.3193C802.816 56.9808 803.345 56.5682 803.683 56.0815C804.043 55.616 804.286 55.1294 804.413 54.6216C804.54 54.1138 804.604 53.5954 804.604 53.0664ZM816.347 52.9712C816.347 54.7909 815.987 56.473 815.268 58.0176C814.548 59.5622 813.607 60.8211 812.443 61.7944C811.004 62.9582 809.512 63.7834 807.968 64.27C806.444 64.7567 804.381 65 801.779 65H781.688V29.3579H793.083V41.2598H801.811C804.371 41.2598 806.434 41.4502 808 41.8311C809.586 42.1908 811.089 42.8996 812.506 43.9575C813.776 44.9097 814.728 46.1898 815.363 47.7979C816.019 49.3848 816.347 51.1092 816.347 52.9712ZM831.771 65H820.346V29.3579H831.771V65ZM880.458 65H867.255L857.702 50.8765H854.052V65H842.626V29.3579H854.052V43.6719C856.168 43.6507 857.628 43.4285 858.432 43.0054C859.236 42.561 860.167 41.4079 861.225 39.5459C861.542 38.9958 861.923 38.2869 862.367 37.4194C862.812 36.5519 863.161 35.8854 863.415 35.4199C864.578 33.3464 865.932 31.8123 867.477 30.8179C869.043 29.8022 871.212 29.2944 873.983 29.2944C874.787 29.2944 875.634 29.305 876.522 29.3262C877.432 29.3473 878.046 29.3579 878.363 29.3579V38.8794H875.253C873.983 38.8794 872.968 39.1968 872.206 39.8315C871.465 40.4663 870.82 41.4079 870.27 42.6562C869.805 43.693 869.381 44.5182 869 45.1318C868.62 45.7243 868.133 46.2321 867.541 46.6553L880.458 65ZM922.257 65H911.181V43.1958L895.692 65H886.234V29.3579H897.311V48.877L911.657 29.3579H922.257V65ZM973.864 65.9521C970.753 65.9521 967.908 65.5819 965.326 64.8413C962.766 64.1007 960.534 62.9582 958.629 61.4136C956.746 59.869 955.286 57.9224 954.25 55.5737C953.213 53.2251 952.694 50.4744 952.694 47.3218C952.694 43.9998 953.244 41.1328 954.345 38.7207C955.466 36.3086 957.021 34.3091 959.01 32.7222C960.936 31.2199 963.157 30.1196 965.675 29.4214C968.193 28.7231 970.806 28.374 973.515 28.374C975.948 28.374 978.191 28.6385 980.243 29.1675C982.296 29.6965 984.21 30.3841 985.988 31.2305V40.9741H984.369C983.925 40.5933 983.385 40.1489 982.75 39.6411C982.137 39.1333 981.375 38.6361 980.465 38.1494C979.598 37.6839 978.646 37.3031 977.609 37.0068C976.572 36.6895 975.366 36.5308 973.991 36.5308C970.944 36.5308 968.595 37.5041 966.945 39.4507C965.316 41.3761 964.501 43.9998 964.501 47.3218C964.501 50.7495 965.337 53.3521 967.008 55.1294C968.701 56.9067 971.092 57.7954 974.181 57.7954C975.62 57.7954 976.911 57.6367 978.053 57.3193C979.217 56.9808 980.18 56.5894 980.941 56.145C981.661 55.7218 982.296 55.2775 982.846 54.812C983.396 54.3465 983.904 53.8916 984.369 53.4473H985.988V63.1909C984.189 64.0373 982.306 64.7038 980.338 65.1904C978.392 65.6982 976.234 65.9521 973.864 65.9521ZM1030.64 47.1948C1030.64 53.0558 1028.93 57.679 1025.5 61.0645C1022.1 64.4287 1017.3 66.1108 1011.12 66.1108C1004.95 66.1108 1000.14 64.4287 996.715 61.0645C993.309 57.679 991.605 53.0558 991.605 47.1948C991.605 41.2915 993.319 36.6577 996.747 33.2935C1000.2 29.9292 1004.99 28.2471 1011.12 28.2471C1017.35 28.2471 1022.15 29.9398 1025.53 33.3252C1028.94 36.7106 1030.64 41.3338 1030.64 47.1948ZM1016.58 55.8594C1017.32 54.9495 1017.87 53.8599 1018.23 52.5903C1018.61 51.2996 1018.81 49.5223 1018.81 47.2583C1018.81 45.1636 1018.61 43.4074 1018.23 41.9897C1017.85 40.5721 1017.32 39.4401 1016.65 38.5938C1015.97 37.7262 1015.16 37.1126 1014.2 36.7529C1013.25 36.3932 1012.22 36.2134 1011.12 36.2134C1010.02 36.2134 1009.04 36.3615 1008.17 36.6577C1007.33 36.9539 1006.51 37.5464 1005.73 38.4351C1005.03 39.2603 1004.47 40.3923 1004.05 41.8311C1003.64 43.2699 1003.44 45.0789 1003.44 47.2583C1003.44 49.2049 1003.62 50.8976 1003.98 52.3364C1004.34 53.7541 1004.87 54.8966 1005.57 55.7642C1006.25 56.5894 1007.05 57.1924 1007.98 57.5732C1008.93 57.9541 1010.01 58.1445 1011.22 58.1445C1012.26 58.1445 1013.24 57.9753 1014.17 57.6367C1015.12 57.277 1015.93 56.6846 1016.58 55.8594ZM1096.79 54.2407C1096.79 55.9546 1096.44 57.478 1095.74 58.811C1095.06 60.144 1094.15 61.2549 1093.01 62.1436C1091.57 63.265 1090.05 64.0267 1088.44 64.4287C1086.85 64.8096 1084.96 65 1082.76 65H1061.05V29.3579H1081.84C1084.44 29.3579 1086.35 29.4425 1087.58 29.6118C1088.81 29.7811 1090.02 30.1937 1091.2 30.8496C1092.45 31.5267 1093.38 32.4259 1093.99 33.5474C1094.63 34.6688 1094.95 36.0018 1094.95 37.5464C1094.95 39.3026 1094.44 40.8472 1093.42 42.1802C1092.43 43.492 1091.22 44.4971 1089.8 45.1953V45.5444C1091.77 46.0311 1093.42 47.015 1094.75 48.4961C1096.11 49.9561 1096.79 51.8709 1096.79 54.2407ZM1083.42 40.0854C1083.42 38.7736 1083.02 37.8426 1082.22 37.2925C1081.44 36.7424 1080.17 36.4673 1078.41 36.4673H1072.38V43.5767H1078.6C1080.14 43.5767 1081.33 43.2699 1082.15 42.6562C1083 42.0215 1083.42 41.1646 1083.42 40.0854ZM1085.01 53.8916C1085.01 52.347 1084.57 51.2679 1083.68 50.6543C1082.81 50.0195 1081.52 49.7021 1079.81 49.7021H1072.38V57.8589H1080C1081.56 57.8589 1082.79 57.5098 1083.68 56.8115C1084.57 56.0921 1085.01 55.1188 1085.01 53.8916ZM1142.93 65H1129.73L1120.18 50.8765H1116.53V65H1105.1V29.3579H1116.53V43.6719C1118.64 43.6507 1120.1 43.4285 1120.91 43.0054C1121.71 42.561 1122.64 41.4079 1123.7 39.5459C1124.02 38.9958 1124.4 38.2869 1124.84 37.4194C1125.29 36.5519 1125.64 35.8854 1125.89 35.4199C1127.05 33.3464 1128.41 31.8123 1129.95 30.8179C1131.52 29.8022 1133.69 29.2944 1136.46 29.2944C1137.26 29.2944 1138.11 29.305 1139 29.3262C1139.91 29.3473 1140.52 29.3579 1140.84 29.3579V38.8794H1137.73C1136.46 38.8794 1135.44 39.1968 1134.68 39.8315C1133.94 40.4663 1133.3 41.4079 1132.75 42.6562C1132.28 43.693 1131.86 44.5182 1131.48 45.1318C1131.1 45.7243 1130.61 46.2321 1130.02 46.6553L1142.93 65ZM1164.8 52.3999L1172.93 29.3579H1184.67L1164.86 78.0762H1152.49L1158.14 64.7461L1144.27 29.3579H1156.26L1164.8 52.3999ZM1209.62 65.9521C1206.51 65.9521 1203.66 65.5819 1201.08 64.8413C1198.52 64.1007 1196.29 62.9582 1194.38 61.4136C1192.5 59.869 1191.04 57.9224 1190 55.5737C1188.96 53.2251 1188.45 50.4744 1188.45 47.3218C1188.45 43.9998 1189 41.1328 1190.1 38.7207C1191.22 36.3086 1192.77 34.3091 1194.76 32.7222C1196.69 31.2199 1198.91 30.1196 1201.43 29.4214C1203.95 28.7231 1206.56 28.374 1209.27 28.374C1211.7 28.374 1213.94 28.6385 1216 29.1675C1218.05 29.6965 1219.96 30.3841 1221.74 31.2305V40.9741H1220.12C1219.68 40.5933 1219.14 40.1489 1218.5 39.6411C1217.89 39.1333 1217.13 38.6361 1216.22 38.1494C1215.35 37.6839 1214.4 37.3031 1213.36 37.0068C1212.32 36.6895 1211.12 36.5308 1209.74 36.5308C1206.7 36.5308 1204.35 37.5041 1202.7 39.4507C1201.07 41.3761 1200.25 43.9998 1200.25 47.3218C1200.25 50.7495 1201.09 53.3521 1202.76 55.1294C1204.45 56.9067 1206.84 57.7954 1209.93 57.7954C1211.37 57.7954 1212.66 57.6367 1213.81 57.3193C1214.97 56.9808 1215.93 56.5894 1216.69 56.145C1217.41 55.7218 1218.05 55.2775 1218.6 54.812C1219.15 54.3465 1219.66 53.8916 1220.12 53.4473H1221.74V63.1909C1219.94 64.0373 1218.06 64.7038 1216.09 65.1904C1214.14 65.6982 1211.99 65.9521 1209.62 65.9521ZM1266.4 47.1948C1266.4 53.0558 1264.68 57.679 1261.25 61.0645C1257.85 64.4287 1253.05 66.1108 1246.88 66.1108C1240.7 66.1108 1235.9 64.4287 1232.47 61.0645C1229.06 57.679 1227.36 53.0558 1227.36 47.1948C1227.36 41.2915 1229.07 36.6577 1232.5 33.2935C1235.95 29.9292 1240.74 28.2471 1246.88 28.2471C1253.1 28.2471 1257.9 29.9398 1261.29 33.3252C1264.69 36.7106 1266.4 41.3338 1266.4 47.1948ZM1252.34 55.8594C1253.08 54.9495 1253.63 53.8599 1253.99 52.5903C1254.37 51.2996 1254.56 49.5223 1254.56 47.2583C1254.56 45.1636 1254.37 43.4074 1253.99 41.9897C1253.6 40.5721 1253.08 39.4401 1252.4 38.5938C1251.72 37.7262 1250.91 37.1126 1249.96 36.7529C1249 36.3932 1247.98 36.2134 1246.88 36.2134C1245.78 36.2134 1244.79 36.3615 1243.92 36.6577C1243.08 36.9539 1242.26 37.5464 1241.48 38.4351C1240.78 39.2603 1240.22 40.3923 1239.8 41.8311C1239.4 43.2699 1239.2 45.0789 1239.2 47.2583C1239.2 49.2049 1239.38 50.8976 1239.74 52.3364C1240.1 53.7541 1240.62 54.8966 1241.32 55.7642C1242 56.5894 1242.8 57.1924 1243.73 57.5732C1244.69 57.9541 1245.77 58.1445 1246.97 58.1445C1248.01 58.1445 1248.99 57.9753 1249.92 57.6367C1250.88 57.277 1251.68 56.6846 1252.34 55.8594ZM1317.75 65H1306.61V42.8784L1298.51 57.478H1293.5L1285.41 42.8784V65H1274.58V29.3579H1286.99L1296.17 45.5444L1305.34 29.3579H1317.75V65Z" fill="black"/>
</svg>
