<svg width="600" height="600" viewBox="0 0 600 600" fill="none" xmlns="http://www.w3.org/2000/svg">
<path fill-rule="evenodd" clip-rule="evenodd" d="M299.4 2.20003C463.7 1.90003 597.6 135.7 597.8 300.3C598 464.5 464.3 598.6 300.2 598.7C135.4 598.9 1.39986 465.3 1.29986 300.6C1.19986 136.1 134.7 2.40003 299.4 2.20003ZM327.2 200.8V261.8V401.8C327.2 411.7 324.2 414.7 314.5 414.9C313.992 414.9 313.452 414.996 312.88 415.097C312.439 415.175 311.979 415.256 311.5 415.3V464L311.5 464.2H429V415.3L429 415.1C428.752 415.078 428.52 415.055 428.299 415.034C427.54 414.96 426.92 414.9 426.3 414.9C414.964 414.502 413.318 412.819 413.3 401.394V329.4V323H419.9C425.094 323 430.294 322.994 435.497 322.988H435.506C451.137 322.969 466.797 322.95 482.4 323.1C486.513 323.1 488.133 322.237 488.104 317.88C488.105 317.725 488.103 317.565 488.1 317.4C487.982 310.229 487.941 303.074 487.935 295.922C487.931 290.182 487.949 284.444 487.967 278.701V278.69L487.967 278.672C487.984 273.486 488 268.297 488 263.1V257.8L488 257.6H481.4C476.15 257.6 470.9 257.594 465.65 257.588C449.9 257.569 434.15 257.55 418.4 257.7C414.682 257.7 413.327 256.791 413.295 253.242C413.296 253.131 413.297 253.017 413.3 252.9C413.414 244.346 413.431 235.791 413.424 227.237C413.422 224.475 413.417 221.712 413.412 218.95L413.412 218.849C413.408 216.154 413.403 213.458 413.401 210.763C413.4 209.808 413.4 208.854 413.4 207.9C413.4 206.997 413.472 206.094 413.552 205.104L413.552 205.103C413.605 204.448 413.66 203.756 413.7 203C415.16 203 416.573 202.977 417.96 202.954L417.962 202.954C420.66 202.91 423.258 202.868 425.9 203C436.2 203.4 442.6 208.3 445.9 218.1C448.1 224.7 450.2 231.4 452 238.1C452.8 241 454.3 241.9 457.3 241.9C473.098 241.8 488.995 241.8 504.793 241.8H504.8C505.889 241.8 506.979 241.66 508.244 241.496C508.489 241.465 508.741 241.432 509 241.4V136.9L509 136.7C443.1 136.9 377.5 136.9 311.6 136.9V185.7L311.6 185.9C311.837 185.959 312.048 186.019 312.24 186.073L312.241 186.073C312.697 186.201 313.048 186.3 313.4 186.3C325.821 186.996 327.183 188.382 327.2 200.764V200.8ZM209.7 137.1H209.8V186.2H203.9C196.5 186.4 193.6 189.2 193.4 196.5V197V393.5C193.4 394.45 193.463 395.462 193.538 396.685C193.558 397.008 193.579 397.345 193.6 397.7C194.18 397.7 194.759 397.701 195.336 397.703C197.837 397.713 200.312 397.74 202.762 397.767H202.763C210.175 397.848 217.363 397.927 224.4 397.5C231.5 397.2 236.2 392.7 237.6 385.8C239.813 374.639 241.656 363.385 243.484 352.217L243.7 350.9C244.093 348.408 244.358 345.917 244.634 343.313C244.779 341.945 244.928 340.546 245.1 339.1H302.8V339.2H302.9V464H91.2002V463.9H91.0999V414.7C91.9779 414.7 92.8446 414.723 93.6999 414.745C95.3771 414.79 97.0104 414.833 98.5999 414.7C103.8 414.3 106.4 411.7 106.9 406.5C107.1 404.5 107.1 402.5 107.1 400.5V200.5C107.1 200.07 107.111 199.63 107.122 199.185C107.144 198.285 107.167 197.37 107.1 196.5C106.954 192.747 106.237 190.205 104.638 188.575C102.951 186.932 100.32 186.25 96.4002 186.2H91.2002V186.1H91.0999V137H209.7V137.1Z" fill="#BD004D"/>
</svg>
